<mxfile host="app.diagrams.net" modified="2024-05-31T17:08:10.161Z" agent="Mozilla/5.0 (Windows NT 10.0; Win64; x64) AppleWebKit/537.36 (KHTML, like Gecko) Chrome/125.0.0.0 Safari/537.36" etag="ej3rxce_hmGPBd5p-3xm" version="24.4.13" type="github">
  <diagram name="Page-1" id="zuhQkFO9fgSmTVKcTVLM">
    <mxGraphModel dx="794" dy="454" grid="1" gridSize="10" guides="1" tooltips="1" connect="1" arrows="1" fold="1" page="1" pageScale="1" pageWidth="850" pageHeight="1100" math="0" shadow="0">
      <root>
        <mxCell id="0" />
        <mxCell id="1" parent="0" />
        <mxCell id="Ka3-mmA19PBRnGRVic-s-1" value="" style="rounded=0;whiteSpace=wrap;html=1;" vertex="1" parent="1">
          <mxGeometry x="208" y="280" width="600" height="530" as="geometry" />
        </mxCell>
        <mxCell id="Ka3-mmA19PBRnGRVic-s-2" value="" style="rounded=0;whiteSpace=wrap;html=1;" vertex="1" parent="1">
          <mxGeometry x="208" y="770" width="599" height="40" as="geometry" />
        </mxCell>
        <mxCell id="Ka3-mmA19PBRnGRVic-s-3" value="Footer for the company like copyright, terms policy, contact, etc." style="rounded=1;whiteSpace=wrap;html=1;fillColor=#e1d5e7;strokeColor=#9673a6;" vertex="1" parent="1">
          <mxGeometry x="208" y="770" width="600" height="40" as="geometry" />
        </mxCell>
        <mxCell id="Ka3-mmA19PBRnGRVic-s-4" value="&lt;font style=&quot;font-size: 16px;&quot;&gt;Dashboard&lt;/font&gt;" style="rounded=0;whiteSpace=wrap;html=1;fillColor=#dae8fc;strokeColor=#6c8ebf;" vertex="1" parent="1">
          <mxGeometry x="208" y="280" width="600" height="40" as="geometry" />
        </mxCell>
        <mxCell id="Ka3-mmA19PBRnGRVic-s-5" value="&lt;span style=&quot;font-family: &amp;quot;Google Sans&amp;quot;, arial, sans-serif; text-align: left; background-color: rgb(255, 255, 255);&quot;&gt;&lt;font style=&quot;font-size: 25px;&quot;&gt;â‰¡&lt;/font&gt;&lt;/span&gt;" style="rounded=0;whiteSpace=wrap;html=1;" vertex="1" parent="1">
          <mxGeometry x="208" y="280" width="52" height="40" as="geometry" />
        </mxCell>
        <mxCell id="Ka3-mmA19PBRnGRVic-s-6" value="" style="rounded=0;whiteSpace=wrap;html=1;" vertex="1" parent="1">
          <mxGeometry x="40" y="280" width="130" height="490" as="geometry" />
        </mxCell>
        <mxCell id="Ka3-mmA19PBRnGRVic-s-7" value="" style="rounded=0;whiteSpace=wrap;html=1;" vertex="1" parent="1">
          <mxGeometry x="40" y="280" width="130" height="100" as="geometry" />
        </mxCell>
        <mxCell id="Ka3-mmA19PBRnGRVic-s-8" value="Profile picture" style="ellipse;whiteSpace=wrap;html=1;aspect=fixed;" vertex="1" parent="1">
          <mxGeometry x="76" y="301" width="58" height="58" as="geometry" />
        </mxCell>
        <mxCell id="Ka3-mmA19PBRnGRVic-s-9" value="HOME" style="rounded=0;whiteSpace=wrap;html=1;" vertex="1" parent="1">
          <mxGeometry x="40" y="380" width="130" height="40" as="geometry" />
        </mxCell>
        <mxCell id="Ka3-mmA19PBRnGRVic-s-10" value="ASSESSMENTS" style="rounded=0;whiteSpace=wrap;html=1;" vertex="1" parent="1">
          <mxGeometry x="40" y="420" width="130" height="40" as="geometry" />
        </mxCell>
        <mxCell id="Ka3-mmA19PBRnGRVic-s-11" value="HELP" style="rounded=0;whiteSpace=wrap;html=1;" vertex="1" parent="1">
          <mxGeometry x="40" y="580" width="130" height="37" as="geometry" />
        </mxCell>
        <mxCell id="Ka3-mmA19PBRnGRVic-s-12" value="SETTINGS" style="rounded=0;whiteSpace=wrap;html=1;" vertex="1" parent="1">
          <mxGeometry x="40" y="540" width="130" height="40" as="geometry" />
        </mxCell>
        <mxCell id="Ka3-mmA19PBRnGRVic-s-13" value="" style="rounded=0;whiteSpace=wrap;html=1;" vertex="1" parent="1">
          <mxGeometry x="209" y="320" width="600" height="160" as="geometry" />
        </mxCell>
        <mxCell id="Ka3-mmA19PBRnGRVic-s-14" value="&lt;h1 style=&quot;margin-top: 0px;&quot;&gt;&lt;span style=&quot;background-color: initial;&quot;&gt;WELCOME @USERNAME&lt;/span&gt;&lt;/h1&gt;&lt;h1 style=&quot;margin-top: 0px;&quot;&gt;&lt;span style=&quot;background-color: initial; font-size: 12px; font-weight: normal;&quot;&gt;HERE INFO ABOUT THEIR SCHEDULED EXAM/TEST WILL BE VISIBLE ALONG WITH ANY OVERDUE EXAM&lt;/span&gt;&lt;br&gt;&lt;/h1&gt;" style="text;html=1;whiteSpace=wrap;overflow=hidden;rounded=0;" vertex="1" parent="1">
          <mxGeometry x="230" y="340" width="440" height="120" as="geometry" />
        </mxCell>
        <mxCell id="Ka3-mmA19PBRnGRVic-s-15" value="" style="endArrow=classic;html=1;rounded=0;exitX=0.5;exitY=0;exitDx=0;exitDy=0;entryX=0.5;entryY=0;entryDx=0;entryDy=0;" edge="1" parent="1" source="Ka3-mmA19PBRnGRVic-s-5" target="Ka3-mmA19PBRnGRVic-s-7">
          <mxGeometry relative="1" as="geometry">
            <mxPoint x="90" y="195" as="sourcePoint" />
            <mxPoint x="50" y="195" as="targetPoint" />
            <Array as="points">
              <mxPoint x="234" y="195" />
              <mxPoint x="105" y="195" />
            </Array>
          </mxGeometry>
        </mxCell>
        <mxCell id="Ka3-mmA19PBRnGRVic-s-16" value="Source" style="edgeLabel;resizable=0;html=1;;align=left;verticalAlign=bottom;" connectable="0" vertex="1" parent="Ka3-mmA19PBRnGRVic-s-15">
          <mxGeometry x="-1" relative="1" as="geometry">
            <mxPoint x="3" y="-1" as="offset" />
          </mxGeometry>
        </mxCell>
        <mxCell id="Ka3-mmA19PBRnGRVic-s-17" value="Target" style="edgeLabel;resizable=0;html=1;;align=right;verticalAlign=bottom;" connectable="0" vertex="1" parent="Ka3-mmA19PBRnGRVic-s-15">
          <mxGeometry x="1" relative="1" as="geometry">
            <mxPoint x="-10" y="-3" as="offset" />
          </mxGeometry>
        </mxCell>
        <mxCell id="Ka3-mmA19PBRnGRVic-s-18" value="IT WILL OVERLAP ON MAIN DASHBORAD" style="edgeLabel;html=1;align=center;verticalAlign=middle;resizable=0;points=[];" vertex="1" connectable="0" parent="Ka3-mmA19PBRnGRVic-s-15">
          <mxGeometry x="0.0368" y="2" relative="1" as="geometry">
            <mxPoint y="-14" as="offset" />
          </mxGeometry>
        </mxCell>
        <mxCell id="Ka3-mmA19PBRnGRVic-s-19" value="SIGN OUT" style="rounded=0;whiteSpace=wrap;html=1;fillColor=#d5e8d4;strokeColor=#82b366;" vertex="1" parent="1">
          <mxGeometry x="720" y="280" width="89" height="40" as="geometry" />
        </mxCell>
        <mxCell id="Ka3-mmA19PBRnGRVic-s-20" style="edgeStyle=orthogonalEdgeStyle;rounded=0;orthogonalLoop=1;jettySize=auto;html=1;exitX=0.5;exitY=0;exitDx=0;exitDy=0;entryX=0.5;entryY=1;entryDx=0;entryDy=0;" edge="1" parent="1" source="Ka3-mmA19PBRnGRVic-s-21" target="Ka3-mmA19PBRnGRVic-s-22">
          <mxGeometry relative="1" as="geometry">
            <mxPoint x="690" y="190" as="targetPoint" />
          </mxGeometry>
        </mxCell>
        <mxCell id="Ka3-mmA19PBRnGRVic-s-21" value="Bell icon for notifs" style="rounded=1;whiteSpace=wrap;html=1;" vertex="1" parent="1">
          <mxGeometry x="660" y="280" width="60" height="40" as="geometry" />
        </mxCell>
        <mxCell id="Ka3-mmA19PBRnGRVic-s-22" value="If someone doesn&#39;t want notifs then they can toggle it to off" style="text;html=1;align=center;verticalAlign=middle;whiteSpace=wrap;rounded=0;" vertex="1" parent="1">
          <mxGeometry x="622" y="130" width="136" height="50" as="geometry" />
        </mxCell>
        <mxCell id="Ka3-mmA19PBRnGRVic-s-23" style="edgeStyle=orthogonalEdgeStyle;rounded=0;orthogonalLoop=1;jettySize=auto;html=1;exitX=0.5;exitY=0;exitDx=0;exitDy=0;entryX=0.5;entryY=1;entryDx=0;entryDy=0;" edge="1" parent="1" source="Ka3-mmA19PBRnGRVic-s-24" target="Ka3-mmA19PBRnGRVic-s-25">
          <mxGeometry relative="1" as="geometry" />
        </mxCell>
        <mxCell id="Ka3-mmA19PBRnGRVic-s-24" value="Calendar icon" style="rounded=1;whiteSpace=wrap;html=1;" vertex="1" parent="1">
          <mxGeometry x="600" y="280" width="60" height="40" as="geometry" />
        </mxCell>
        <mxCell id="Ka3-mmA19PBRnGRVic-s-25" value="To see dates for future events, reminders, etc." style="text;html=1;align=center;verticalAlign=middle;whiteSpace=wrap;rounded=0;" vertex="1" parent="1">
          <mxGeometry x="550" y="200" width="130" height="40" as="geometry" />
        </mxCell>
        <mxCell id="Ka3-mmA19PBRnGRVic-s-26" value="REPORTS" style="rounded=0;whiteSpace=wrap;html=1;" vertex="1" parent="1">
          <mxGeometry x="40" y="460" width="130" height="40" as="geometry" />
        </mxCell>
        <mxCell id="Ka3-mmA19PBRnGRVic-s-27" value="RESUME" style="rounded=0;whiteSpace=wrap;html=1;" vertex="1" parent="1">
          <mxGeometry x="40" y="500" width="130" height="40" as="geometry" />
        </mxCell>
        <mxCell id="Ka3-mmA19PBRnGRVic-s-28" value="&lt;font size=&quot;1&quot; style=&quot;&quot;&gt;&lt;b style=&quot;&quot;&gt;&lt;u style=&quot;font-size: 26px;&quot;&gt;Upcoming Tests&lt;/u&gt;&lt;/b&gt;&lt;/font&gt;" style="text;html=1;align=center;verticalAlign=middle;whiteSpace=wrap;rounded=0;" vertex="1" parent="1">
          <mxGeometry x="230" y="500" width="210" height="30" as="geometry" />
        </mxCell>
        <mxCell id="Ka3-mmA19PBRnGRVic-s-29" value="" style="group" vertex="1" connectable="0" parent="1">
          <mxGeometry x="230" y="550" width="550" height="120" as="geometry" />
        </mxCell>
        <mxCell id="Ka3-mmA19PBRnGRVic-s-30" value="&lt;h1 style=&quot;margin-top: 0px;&quot;&gt;&lt;font style=&quot;font-size: 21px;&quot;&gt;TEST DETAILS&lt;/font&gt;&lt;/h1&gt;&lt;p&gt;SUBJECT: XYZ&lt;/p&gt;&lt;p&gt;TIME: X MINUTES&lt;/p&gt;" style="text;html=1;whiteSpace=wrap;overflow=hidden;rounded=0;" vertex="1" parent="Ka3-mmA19PBRnGRVic-s-29">
          <mxGeometry width="180" height="120" as="geometry" />
        </mxCell>
        <mxCell id="Ka3-mmA19PBRnGRVic-s-31" value="" style="group" vertex="1" connectable="0" parent="Ka3-mmA19PBRnGRVic-s-29">
          <mxGeometry x="340" y="8.5" width="210" height="103" as="geometry" />
        </mxCell>
        <mxCell id="Ka3-mmA19PBRnGRVic-s-32" value="TIMER WHICH SHOWS TIME LEFT TO START THE TEST" style="rounded=0;whiteSpace=wrap;html=1;" vertex="1" parent="Ka3-mmA19PBRnGRVic-s-31">
          <mxGeometry width="210" height="60" as="geometry" />
        </mxCell>
        <mxCell id="Ka3-mmA19PBRnGRVic-s-33" value="" style="group" vertex="1" connectable="0" parent="Ka3-mmA19PBRnGRVic-s-31">
          <mxGeometry x="40" y="67" width="152" height="36" as="geometry" />
        </mxCell>
        <mxCell id="Ka3-mmA19PBRnGRVic-s-34" value="START TEST BUTTON" style="rounded=0;whiteSpace=wrap;html=1;" vertex="1" parent="Ka3-mmA19PBRnGRVic-s-33">
          <mxGeometry y="3" width="130" height="30" as="geometry" />
        </mxCell>
        <mxCell id="Ka3-mmA19PBRnGRVic-s-35" value="" style="triangle;whiteSpace=wrap;html=1;" vertex="1" parent="Ka3-mmA19PBRnGRVic-s-33">
          <mxGeometry x="130" width="22" height="36" as="geometry" />
        </mxCell>
      </root>
    </mxGraphModel>
  </diagram>
</mxfile>
